# xmcd
#
# Track frame offsets: 
#        150
#        11330
#        30196
#        44508
#        53368
#        65055
#        77545
#        91300
#        101143
#        119743
#        133516
#        152304
#        172575
#        195048
#
# Disc length: 2729 seconds
#
# Revision: 2
# Processed by: cddbd v1.5.2PL0 Copyright (c) Steve Scherf et al.
# Submitted via: ExactAudioCopy v0.95b4
#
DISCID=980aa70e
DTITLE=Nothin' Fancy - Earn Your Ticket
DYEAR=2001
DGENRE=Bluegrass
TTITLE0=Handsome Molly
TTITLE1=Mary Dear
TTITLE2=Earn Your Ticket
TTITLE3=Dooley
TTITLE4=I'm Using my Bible
TTITLE5=Ramblin' Boy
TTITLE6=Poor Ellen Smith
TTITLE7=I Know I haven't got the right
TTITLE8=Tonight I Remember Yesterday
TTITLE9=Your Memeory Has To Go
TTITLE10=Long Black Veil
TTITLE11=When the Wind Blows
TTITLE12=If You Don't
TTITLE13=When my time comes to go
EXTD=
EXTT0=
EXTT1=
EXTT2=
EXTT3=
EXTT4=
EXTT5=
EXTT6=
EXTT7=
EXTT8=
EXTT9=
EXTT10=
EXTT11=
EXTT12=
EXTT13=
PLAYORDER=
